<svg xmlns:dc="http://purl.org/dc/elements/1.1/" xmlns:cc="http://creativecommons.org/ns#" xmlns:rdf="http://www.w3.org/1999/02/22-rdf-syntax-ns#" xmlns:svg="http://www.w3.org/2000/svg" xmlns="http://www.w3.org/2000/svg" xmlns:sodipodi="http://sodipodi.sourceforge.net/DTD/sodipodi-0.dtd" xmlns:inkscape="http://www.inkscape.org/namespaces/inkscape" version="1.1" x="0px" y="0px" viewBox="0 0 100 100"><g transform="translate(0,-952.36218)"><path style="text-indent:0;text-transform:none;direction:ltr;block-progression:tb;baseline-shift:baseline;color:#000000;enable-background:accumulate;" d="m 20.301505,1012.2617 c -5.459863,5.4598 -5.459833,14.3392 2.1e-5,19.799 5.459847,5.4598 14.339103,5.4598 19.799003,0 l 14.142106,-14.1422 c 5.4599,-5.4598 5.459867,-14.3391 2.4e-5,-19.79893 a 2.0002,2.0002 0 1 0 -2.828425,2.82843 c 3.941814,3.9418 3.941831,10.2003 -2.6e-5,14.1421 l -14.142105,14.1422 c -3.941858,3.9417 -10.200291,3.9418 -14.142155,0 -3.941816,-3.9418 -3.941811,-10.2003 -1.5e-5,-14.1422 l 14.142138,-14.1421 a 2.0002,2.0002 0 1 0 -2.828426,-2.82846 l -14.14214,14.14216 z m 25.455853,-25.45586 c -5.459865,5.45986 -5.459862,14.33916 9e-6,19.79896 a 2.0002,2.0002 0 1 0 2.828422,-2.8284 c -3.941834,-3.94183 -3.941837,-10.20031 -5e-6,-14.14214 L 62.72792,975.49213 c 3.94183,-3.94184 10.200307,-3.94183 14.14215,10e-6 3.941839,3.94184 3.941821,10.20029 -1.4e-5,14.14212 l -14.142138,14.14214 a 2.0002,2.0002 0 1 0 2.828426,2.8284 l 14.14213,-14.14215 c 5.459894,-5.45979 5.459878,-14.33908 2.2e-5,-19.79894 -5.459877,-5.45988 -14.339143,-5.45987 -19.799002,-1e-5 l -14.142136,14.14214 z" fill="#000000" fill-opacity="1" stroke="none" marker="none" visibility="visible" display="inline" overflow="visible"></path></g></svg>