<?xml version="1.0" encoding="utf-8"?>
<!-- Generator: Adobe Illustrator 25.2.3, SVG Export Plug-In . SVG Version: 6.00 Build 0)  -->
<svg version="1.1" id="Layer_1" xmlns="http://www.w3.org/2000/svg" xmlns:xlink="http://www.w3.org/1999/xlink" x="0px" y="0px"
	 viewBox="0 0 32.58 31.77" style="enable-background:new 0 0 32.58 31.77;" xml:space="preserve">
<style type="text/css">
	.st0{fill-rule:evenodd;clip-rule:evenodd;fill:#191717;}
	.st1{fill:#191717;}
	.st2{fill:none;stroke:#1981BC;stroke-linecap:round;stroke-miterlimit:10;}
	.st3{fill:none;stroke:#1981BC;stroke-linecap:round;stroke-miterlimit:10;stroke-dasharray:0.9999,1.9999;}
	.st4{fill:#0072BC;}
	.st5{fill-rule:evenodd;clip-rule:evenodd;fill:#FFFFFF;}
	.st6{fill:#FFFFFF;}
</style>
<rect x="-136.32" y="168.56" width="530.97" height="275.99"/>
<path class="st0" d="M16.29,0C7.29,0,0,7.29,0,16.29c0,7.2,4.67,13.3,11.14,15.46c0.81,0.15,1.11-0.35,1.11-0.79
	c0-0.39-0.01-1.41-0.02-2.77c-4.53,0.98-5.49-2.18-5.49-2.18C6,24.13,4.93,23.62,4.93,23.62c-1.48-1.01,0.11-0.99,0.11-0.99
	c1.63,0.12,2.5,1.68,2.5,1.68c1.45,2.49,3.81,1.77,4.74,1.35c0.15-1.05,0.57-1.77,1.03-2.18C9.7,23.08,5.9,21.68,5.9,15.44
	c0-1.78,0.63-3.23,1.68-4.37C7.41,10.65,6.85,9,7.73,6.76c0,0,1.37-0.44,4.48,1.67c1.3-0.36,2.69-0.54,4.08-0.55
	c1.38,0.01,2.78,0.19,4.08,0.55c3.11-2.11,4.48-1.67,4.48-1.67c0.89,2.24,0.33,3.9,0.16,4.31c1.04,1.14,1.67,2.59,1.67,4.37
	c0,6.26-3.81,7.63-7.44,8.04c0.58,0.5,1.11,1.5,1.11,3.02c0,2.18-0.02,3.93-0.02,4.47c0,0.44,0.29,0.94,1.12,0.78
	c6.47-2.16,11.13-8.26,11.13-15.45C32.58,7.29,25.29,0,16.29,0z"/>
<g>
	<path class="st0" d="M214.29-49.01c-33.35,0-60.39,27.04-60.39,60.39c0,26.68,17.3,49.32,41.3,57.3c3.02,0.56,4.13-1.31,4.13-2.91
		c0-1.44-0.06-6.2-0.08-11.24c-16.8,3.65-20.34-7.12-20.34-7.12c-2.75-6.98-6.71-8.84-6.71-8.84c-5.48-3.75,0.41-3.67,0.41-3.67
		c6.06,0.43,9.26,6.22,9.26,6.22c5.39,9.23,14.13,6.56,17.57,5.02c0.54-3.9,2.11-6.57,3.83-8.08c-13.41-1.53-27.51-6.71-27.51-29.84
		c0-6.59,2.36-11.98,6.22-16.21c-0.63-1.52-2.69-7.66,0.58-15.98c0,0,5.07-1.62,16.61,6.19c4.82-1.34,9.98-2.01,15.12-2.03
		c5.13,0.02,10.3,0.69,15.13,2.03c11.53-7.81,16.59-6.19,16.59-6.19c3.29,8.32,1.22,14.46,0.59,15.98
		c3.87,4.23,6.21,9.62,6.21,16.21c0,23.19-14.13,28.3-27.57,29.8c2.17,1.87,4.1,5.55,4.1,11.18c0,8.08-0.07,14.58-0.07,16.57
		c0,1.61,1.09,3.49,4.15,2.9c23.98-7.99,41.26-30.62,41.26-57.29C274.68-21.97,247.64-49.01,214.29-49.01z"/>
	<path class="st1" d="M176.77,37.69c-0.13,0.3-0.61,0.39-1.04,0.18c-0.44-0.2-0.68-0.61-0.54-0.91c0.13-0.31,0.6-0.39,1.04-0.19
		C176.67,36.98,176.92,37.39,176.77,37.69L176.77,37.69z M176.03,37.14"/>
	<path class="st1" d="M179.22,40.42c-0.29,0.27-0.85,0.14-1.23-0.28c-0.4-0.42-0.47-0.98-0.18-1.25c0.3-0.27,0.84-0.14,1.24,0.28
		C179.44,39.59,179.52,40.15,179.22,40.42L179.22,40.42z M178.64,39.8"/>
	<path class="st1" d="M181.6,43.9c-0.37,0.26-0.98,0.02-1.35-0.52c-0.37-0.54-0.37-1.18,0.01-1.44c0.37-0.26,0.97-0.03,1.35,0.51
		C181.98,42.99,181.98,43.64,181.6,43.9L181.6,43.9z M181.6,43.9"/>
	<path class="st1" d="M184.86,47.26c-0.33,0.37-1.04,0.27-1.55-0.23c-0.53-0.49-0.67-1.18-0.34-1.54c0.34-0.37,1.04-0.26,1.56,0.23
		C185.06,46.2,185.21,46.9,184.86,47.26L184.86,47.26z M184.86,47.26"/>
	<path class="st1" d="M189.36,49.21c-0.15,0.47-0.83,0.69-1.51,0.49c-0.68-0.21-1.13-0.76-0.99-1.24c0.14-0.48,0.82-0.7,1.51-0.49
		C189.06,48.18,189.5,48.73,189.36,49.21L189.36,49.21z M189.36,49.21"/>
	<path class="st1" d="M194.3,49.57c0.02,0.5-0.56,0.91-1.28,0.92c-0.72,0.02-1.31-0.39-1.31-0.88c0-0.5,0.57-0.91,1.29-0.92
		C193.72,48.68,194.3,49.08,194.3,49.57L194.3,49.57z M194.3,49.57"/>
	<path class="st1" d="M198.9,48.79c0.09,0.49-0.41,0.98-1.13,1.12c-0.7,0.13-1.35-0.17-1.44-0.65c-0.09-0.5,0.42-1,1.12-1.13
		C198.17,48,198.81,48.3,198.9,48.79L198.9,48.79z M198.9,48.79"/>
</g>
<g>
	<g>
		<line class="st2" x1="88.58" y1="-54.94" x2="88.58" y2="-54.44"/>
		<line class="st3" x1="88.58" y1="-52.44" x2="88.58" y2="81.55"/>
		<line class="st2" x1="88.58" y1="82.55" x2="88.58" y2="83.05"/>
	</g>
</g>
<g>
	<path class="st4" d="M-3.04,97.07c-0.38-0.28-0.87-0.41-1.46-0.41c-0.24,0-0.48,0.02-0.71,0.07c-0.23,0.05-0.44,0.13-0.62,0.24
		c-0.18,0.11-0.32,0.26-0.43,0.45c-0.11,0.19-0.16,0.42-0.16,0.7c0,0.26,0.08,0.48,0.23,0.64c0.16,0.16,0.36,0.3,0.62,0.4
		c0.26,0.1,0.55,0.19,0.88,0.26c0.33,0.07,0.66,0.14,1,0.22c0.34,0.08,0.67,0.17,1,0.28c0.33,0.11,0.62,0.25,0.88,0.44
		c0.26,0.18,0.47,0.42,0.62,0.7c0.16,0.28,0.23,0.63,0.23,1.06c0,0.46-0.1,0.85-0.31,1.17c-0.2,0.32-0.47,0.59-0.79,0.79
		c-0.32,0.2-0.68,0.35-1.07,0.44c-0.4,0.09-0.79,0.14-1.18,0.14c-0.48,0-0.93-0.06-1.36-0.18c-0.43-0.12-0.8-0.3-1.13-0.55
		c-0.32-0.24-0.58-0.56-0.77-0.94c-0.19-0.38-0.28-0.83-0.28-1.35h1.08c0,0.36,0.07,0.67,0.21,0.93c0.14,0.26,0.32,0.47,0.55,0.64
		c0.23,0.17,0.49,0.29,0.8,0.37c0.3,0.08,0.62,0.12,0.94,0.12c0.26,0,0.51-0.02,0.77-0.07c0.26-0.05,0.49-0.13,0.7-0.25
		c0.21-0.12,0.38-0.27,0.5-0.47c0.13-0.2,0.19-0.46,0.19-0.77c0-0.3-0.08-0.54-0.23-0.72c-0.16-0.18-0.36-0.33-0.62-0.45
		c-0.26-0.12-0.55-0.21-0.88-0.28c-0.33-0.07-0.66-0.15-1-0.22c-0.34-0.08-0.67-0.16-1-0.26c-0.33-0.1-0.62-0.23-0.88-0.4
		c-0.26-0.16-0.47-0.38-0.62-0.64c-0.16-0.26-0.23-0.59-0.23-0.98c0-0.43,0.09-0.81,0.26-1.12c0.18-0.32,0.41-0.58,0.7-0.78
		c0.29-0.2,0.62-0.36,1-0.46c0.37-0.1,0.75-0.15,1.15-0.15c0.44,0,0.85,0.05,1.22,0.16s0.71,0.27,0.99,0.49
		c0.28,0.22,0.51,0.51,0.67,0.85c0.16,0.34,0.25,0.75,0.27,1.22h-1.08C-2.44,97.79-2.66,97.34-3.04,97.07z"/>
	<path class="st4" d="M1.23,98.26v0.91h0.02c0.46-0.71,1.13-1.06,2-1.06c0.38,0,0.73,0.08,1.04,0.24c0.31,0.16,0.53,0.43,0.66,0.82
		c0.21-0.34,0.48-0.6,0.82-0.78c0.34-0.18,0.71-0.28,1.12-0.28c0.31,0,0.59,0.03,0.85,0.1c0.25,0.07,0.47,0.17,0.65,0.32
		c0.18,0.14,0.32,0.33,0.42,0.56c0.1,0.23,0.15,0.5,0.15,0.82v4.55H7.95v-4.07c0-0.19-0.02-0.37-0.05-0.54
		c-0.03-0.17-0.09-0.31-0.18-0.44c-0.09-0.12-0.21-0.22-0.37-0.29C7.2,99.05,7,99.02,6.75,99.02c-0.5,0-0.9,0.14-1.19,0.43
		s-0.43,0.67-0.43,1.15v3.86H4.11v-4.07c0-0.2-0.02-0.38-0.05-0.55c-0.04-0.17-0.1-0.31-0.19-0.44c-0.09-0.12-0.21-0.22-0.35-0.29
		c-0.15-0.07-0.34-0.1-0.57-0.1c-0.3,0-0.55,0.06-0.76,0.18c-0.21,0.12-0.38,0.26-0.52,0.43c-0.13,0.17-0.23,0.34-0.29,0.52
		c-0.06,0.18-0.09,0.33-0.09,0.45v3.86H0.27v-6.2H1.23z"/>
	<path class="st4" d="M15.27,104.6c-0.26,0-0.47-0.07-0.63-0.22c-0.16-0.15-0.23-0.39-0.23-0.73c-0.28,0.34-0.61,0.58-0.98,0.73
		c-0.37,0.15-0.77,0.22-1.21,0.22c-0.28,0-0.54-0.03-0.79-0.09c-0.25-0.06-0.47-0.16-0.65-0.3c-0.19-0.14-0.34-0.32-0.44-0.54
		c-0.11-0.22-0.16-0.49-0.16-0.8c0-0.35,0.06-0.64,0.18-0.86c0.12-0.22,0.28-0.41,0.47-0.55c0.2-0.14,0.42-0.25,0.67-0.32
		c0.25-0.07,0.51-0.13,0.77-0.18c0.28-0.06,0.55-0.1,0.8-0.12c0.25-0.03,0.47-0.07,0.67-0.12c0.19-0.05,0.34-0.13,0.46-0.23
		c0.11-0.1,0.17-0.25,0.17-0.44c0-0.22-0.04-0.4-0.13-0.54c-0.08-0.14-0.19-0.24-0.32-0.31c-0.13-0.07-0.28-0.12-0.44-0.14
		c-0.16-0.02-0.33-0.04-0.49-0.04c-0.43,0-0.79,0.08-1.08,0.25c-0.29,0.16-0.44,0.47-0.47,0.93h-1.02c0.02-0.38,0.1-0.71,0.24-0.97
		c0.14-0.26,0.34-0.48,0.58-0.64c0.24-0.16,0.52-0.28,0.83-0.35c0.31-0.07,0.64-0.11,0.98-0.11c0.28,0,0.56,0.02,0.83,0.06
		c0.28,0.04,0.53,0.12,0.75,0.25c0.22,0.12,0.4,0.3,0.54,0.52c0.14,0.22,0.2,0.52,0.2,0.88v3.19c0,0.24,0.01,0.42,0.04,0.53
		c0.03,0.11,0.12,0.17,0.28,0.17c0.09,0,0.19-0.02,0.31-0.06v0.79C15.83,104.54,15.59,104.6,15.27,104.6z M13.85,101.47
		c-0.21,0.04-0.43,0.08-0.65,0.11c-0.23,0.03-0.46,0.06-0.69,0.1c-0.23,0.04-0.44,0.09-0.62,0.17c-0.18,0.08-0.33,0.19-0.45,0.34
		c-0.12,0.15-0.17,0.35-0.17,0.61c0,0.17,0.03,0.31,0.1,0.43c0.07,0.12,0.16,0.21,0.26,0.28c0.11,0.07,0.24,0.12,0.38,0.16
		c0.15,0.03,0.3,0.05,0.45,0.05c0.34,0,0.62-0.04,0.86-0.14c0.24-0.09,0.44-0.21,0.59-0.35c0.15-0.14,0.26-0.29,0.34-0.46
		c0.07-0.16,0.11-0.32,0.11-0.46v-1.04C14.22,101.36,14.05,101.43,13.85,101.47z"/>
	<path class="st4" d="M18.03,95.9v8.57h-1.02V95.9H18.03z"/>
	<path class="st4" d="M20.7,95.9v8.57h-1.02V95.9H20.7z"/>
	<path class="st4" d="M-34.47,113.56v-0.9h1.04v-0.92c0-0.5,0.15-0.89,0.44-1.15c0.29-0.26,0.72-0.39,1.28-0.39
		c0.1,0,0.21,0.01,0.33,0.02c0.12,0.02,0.23,0.04,0.33,0.07v0.89c-0.09-0.03-0.18-0.05-0.29-0.07c-0.1-0.01-0.2-0.02-0.29-0.02
		c-0.25,0-0.44,0.05-0.58,0.14c-0.14,0.1-0.2,0.28-0.2,0.55v0.86h1.2v0.9h-1.2v5.3h-1.02v-5.3H-34.47z"/>
	<path class="st4" d="M-30.43,114.49c0.13-0.4,0.32-0.74,0.58-1.03c0.26-0.29,0.57-0.52,0.95-0.69c0.38-0.17,0.81-0.25,1.3-0.25
		c0.5,0,0.93,0.08,1.3,0.25c0.37,0.17,0.69,0.4,0.94,0.69c0.26,0.29,0.45,0.64,0.58,1.03c0.13,0.4,0.19,0.82,0.19,1.28
		c0,0.46-0.06,0.88-0.19,1.27c-0.13,0.39-0.32,0.73-0.58,1.03c-0.26,0.29-0.57,0.52-0.94,0.68c-0.37,0.16-0.81,0.25-1.3,0.25
		c-0.49,0-0.92-0.08-1.3-0.25c-0.38-0.16-0.69-0.39-0.95-0.68c-0.26-0.29-0.45-0.63-0.58-1.03c-0.13-0.39-0.19-0.82-0.19-1.27
		C-30.63,115.31-30.56,114.89-30.43,114.49z M-29.4,116.77c0.1,0.29,0.24,0.54,0.41,0.73c0.18,0.2,0.38,0.35,0.62,0.45
		c0.24,0.1,0.49,0.16,0.75,0.16c0.26,0,0.51-0.05,0.75-0.16c0.24-0.1,0.44-0.25,0.62-0.45c0.18-0.2,0.31-0.44,0.41-0.73
		c0.1-0.29,0.15-0.63,0.15-1c0-0.38-0.05-0.71-0.15-1c-0.1-0.29-0.24-0.54-0.41-0.74c-0.18-0.2-0.38-0.35-0.62-0.46
		c-0.24-0.1-0.49-0.16-0.75-0.16c-0.26,0-0.51,0.05-0.75,0.16c-0.24,0.1-0.44,0.26-0.62,0.46c-0.18,0.2-0.31,0.45-0.41,0.74
		c-0.1,0.29-0.15,0.62-0.15,1C-29.55,116.14-29.5,116.48-29.4,116.77z"/>
	<path class="st4" d="M-22.48,112.66v1.31h0.02c0.25-0.5,0.55-0.88,0.91-1.12c0.36-0.24,0.82-0.35,1.37-0.34v1.08
		c-0.41,0-0.76,0.06-1.04,0.17c-0.29,0.11-0.52,0.28-0.7,0.49c-0.18,0.21-0.3,0.48-0.38,0.79c-0.08,0.31-0.12,0.66-0.12,1.06v2.76
		h-1.02v-6.2H-22.48z"/>
	<path class="st4" d="M-13.59,118.86v-6.1h-2.21v-0.82c0.29,0,0.57-0.02,0.84-0.07c0.27-0.04,0.52-0.12,0.74-0.25
		c0.22-0.12,0.41-0.28,0.56-0.49c0.15-0.21,0.26-0.47,0.31-0.79h0.78v8.51H-13.59z"/>
	<path class="st4" d="M-5.64,111.6c-0.25-0.23-0.58-0.35-0.98-0.35c-0.43,0-0.78,0.11-1.04,0.32c-0.26,0.21-0.47,0.48-0.62,0.8
		c-0.15,0.32-0.25,0.67-0.31,1.05c-0.06,0.38-0.09,0.73-0.1,1.06l0.02,0.02c0.24-0.39,0.54-0.68,0.89-0.85
		c0.36-0.18,0.77-0.26,1.23-0.26c0.41,0,0.77,0.07,1.1,0.21c0.32,0.14,0.6,0.33,0.82,0.58c0.22,0.25,0.39,0.54,0.51,0.88
		c0.12,0.34,0.18,0.7,0.18,1.09c0,0.31-0.05,0.64-0.14,0.97c-0.1,0.34-0.25,0.64-0.47,0.92c-0.22,0.28-0.51,0.5-0.88,0.68
		C-5.8,118.91-6.25,119-6.78,119c-0.63,0-1.14-0.13-1.52-0.38c-0.38-0.26-0.68-0.58-0.89-0.98c-0.21-0.4-0.35-0.84-0.41-1.32
		c-0.07-0.48-0.1-0.94-0.1-1.39c0-0.58,0.05-1.15,0.15-1.7c0.1-0.55,0.27-1.03,0.51-1.46c0.24-0.42,0.56-0.76,0.96-1.02
		c0.4-0.26,0.9-0.38,1.51-0.38c0.7,0,1.26,0.19,1.68,0.56s0.66,0.91,0.72,1.61H-5.2C-5.25,112.14-5.39,111.84-5.64,111.6z
		 M-7.49,114.44c-0.22,0.1-0.4,0.24-0.55,0.41c-0.15,0.17-0.27,0.38-0.34,0.61c-0.08,0.24-0.11,0.49-0.11,0.75
		c0,0.26,0.04,0.51,0.12,0.74c0.08,0.23,0.19,0.43,0.34,0.6c0.15,0.17,0.33,0.3,0.55,0.4c0.22,0.1,0.47,0.15,0.75,0.15
		c0.28,0,0.53-0.05,0.74-0.15c0.21-0.1,0.39-0.24,0.53-0.41c0.14-0.18,0.25-0.38,0.33-0.61c0.08-0.23,0.11-0.47,0.11-0.71
		c0-0.26-0.03-0.51-0.1-0.75c-0.07-0.24-0.17-0.44-0.32-0.61c-0.14-0.17-0.32-0.31-0.54-0.41c-0.22-0.1-0.47-0.16-0.76-0.16
		C-7.02,114.29-7.27,114.34-7.49,114.44z"/>
	<path class="st4" d="M-1.67,112.66v0.84h0.02c0.17-0.34,0.43-0.59,0.79-0.75c0.36-0.16,0.76-0.23,1.19-0.23
		c0.48,0,0.9,0.09,1.25,0.26c0.36,0.18,0.65,0.41,0.89,0.71c0.24,0.3,0.41,0.65,0.53,1.04c0.12,0.39,0.18,0.81,0.18,1.25
		c0,0.44-0.06,0.86-0.17,1.25c-0.12,0.39-0.29,0.73-0.53,1.03c-0.24,0.29-0.53,0.52-0.89,0.69C1.24,118.91,0.83,119,0.36,119
		c-0.15,0-0.32-0.02-0.51-0.05c-0.19-0.03-0.37-0.08-0.56-0.16c-0.18-0.07-0.36-0.17-0.52-0.29c-0.16-0.12-0.3-0.28-0.41-0.46h-0.02
		v3.19h-1.02v-8.57H-1.67z M2,114.86c-0.08-0.28-0.19-0.52-0.35-0.74c-0.16-0.22-0.36-0.39-0.6-0.52c-0.24-0.13-0.53-0.19-0.86-0.19
		c-0.34,0-0.64,0.07-0.88,0.2c-0.24,0.14-0.44,0.31-0.59,0.53c-0.15,0.22-0.26,0.47-0.33,0.75c-0.07,0.28-0.1,0.56-0.1,0.85
		c0,0.3,0.04,0.6,0.11,0.88c0.07,0.29,0.19,0.54,0.34,0.75c0.16,0.22,0.36,0.39,0.61,0.52c0.25,0.13,0.55,0.2,0.9,0.2
		c0.35,0,0.65-0.07,0.88-0.2c0.24-0.14,0.43-0.32,0.57-0.54c0.14-0.22,0.25-0.48,0.31-0.77c0.06-0.29,0.1-0.58,0.1-0.89
		C2.11,115.42,2.07,115.14,2,114.86z"/>
	<path class="st4" d="M3.9,112.66h1.31l1.49,2.17l1.55-2.17h1.22l-2.14,2.86l2.4,3.35H8.42l-1.73-2.57l-1.73,2.57H3.73l2.33-3.26
		L3.9,112.66z"/>
	<path class="st4" d="M13.91,115.05v0.96h-3.47v-0.96H13.91z"/>
	<path class="st4" d="M17.76,118.86v-6.1h-2.21v-0.82c0.29,0,0.57-0.02,0.84-0.07c0.27-0.04,0.52-0.12,0.74-0.25
		c0.22-0.12,0.41-0.28,0.56-0.49c0.15-0.21,0.26-0.47,0.31-0.79h0.78v8.51H17.76z"/>
	<path class="st4" d="M21.84,112.17c0.11-0.37,0.29-0.69,0.52-0.96c0.24-0.27,0.53-0.48,0.88-0.63c0.35-0.15,0.75-0.23,1.2-0.23
		c0.37,0,0.71,0.05,1.04,0.16c0.32,0.11,0.61,0.26,0.85,0.47c0.24,0.2,0.43,0.46,0.57,0.76c0.14,0.3,0.21,0.66,0.21,1.06
		c0,0.38-0.06,0.71-0.17,1c-0.12,0.29-0.27,0.55-0.46,0.77c-0.19,0.23-0.41,0.43-0.66,0.62c-0.25,0.18-0.5,0.36-0.77,0.53
		c-0.26,0.16-0.53,0.32-0.79,0.47c-0.26,0.16-0.51,0.32-0.73,0.5c-0.22,0.18-0.41,0.37-0.56,0.57c-0.16,0.2-0.26,0.44-0.31,0.7h4.37
		v0.9h-5.56c0.04-0.5,0.13-0.93,0.27-1.29c0.14-0.36,0.32-0.67,0.53-0.93c0.22-0.26,0.46-0.5,0.73-0.7c0.27-0.2,0.56-0.39,0.85-0.56
		c0.36-0.22,0.68-0.43,0.95-0.62c0.27-0.19,0.5-0.38,0.68-0.57c0.18-0.19,0.32-0.4,0.41-0.62s0.14-0.48,0.14-0.78
		c0-0.23-0.04-0.44-0.13-0.63c-0.09-0.19-0.21-0.35-0.35-0.49c-0.15-0.14-0.32-0.24-0.52-0.31c-0.2-0.07-0.41-0.11-0.64-0.11
		c-0.3,0-0.55,0.06-0.76,0.19c-0.21,0.12-0.39,0.29-0.52,0.49c-0.14,0.2-0.23,0.43-0.29,0.68c-0.06,0.25-0.09,0.51-0.08,0.76h-1.02
		C21.68,112.94,21.73,112.54,21.84,112.17z"/>
	<path class="st4" d="M28.38,113.72c0.02-0.34,0.06-0.66,0.12-0.98c0.06-0.32,0.16-0.62,0.28-0.91c0.12-0.29,0.28-0.54,0.49-0.76
		c0.21-0.22,0.47-0.39,0.79-0.52c0.32-0.13,0.69-0.19,1.13-0.19c0.44,0,0.82,0.06,1.13,0.19c0.32,0.13,0.58,0.3,0.79,0.52
		c0.21,0.22,0.37,0.47,0.49,0.76c0.12,0.29,0.21,0.59,0.28,0.91c0.06,0.32,0.1,0.65,0.12,0.98c0.02,0.34,0.02,0.66,0.02,0.97
		s-0.01,0.64-0.02,0.97c-0.02,0.34-0.06,0.66-0.12,0.98c-0.06,0.32-0.16,0.62-0.28,0.91c-0.12,0.29-0.28,0.54-0.49,0.75
		c-0.21,0.22-0.47,0.39-0.78,0.51c-0.31,0.12-0.69,0.19-1.14,0.19c-0.44,0-0.82-0.06-1.13-0.19c-0.32-0.12-0.58-0.29-0.79-0.51
		c-0.21-0.21-0.37-0.46-0.49-0.75c-0.12-0.28-0.21-0.59-0.28-0.91c-0.06-0.32-0.1-0.65-0.12-0.98s-0.02-0.66-0.02-0.97
		S28.36,114.05,28.38,113.72z M29.46,115.75c0.02,0.4,0.08,0.77,0.19,1.12c0.11,0.35,0.28,0.64,0.52,0.88
		c0.24,0.24,0.58,0.36,1.01,0.36c0.43,0,0.77-0.12,1.01-0.36c0.24-0.24,0.41-0.53,0.52-0.88c0.11-0.35,0.17-0.72,0.19-1.12
		c0.02-0.4,0.03-0.75,0.03-1.07c0-0.21,0-0.44-0.01-0.69c0-0.25-0.02-0.5-0.06-0.76c-0.04-0.25-0.09-0.5-0.16-0.74
		c-0.07-0.24-0.17-0.45-0.3-0.63c-0.13-0.18-0.3-0.33-0.5-0.44c-0.2-0.11-0.44-0.17-0.73-0.17s-0.53,0.06-0.73,0.17
		c-0.2,0.11-0.37,0.26-0.5,0.44c-0.13,0.18-0.23,0.39-0.3,0.63c-0.07,0.24-0.12,0.49-0.16,0.74c-0.04,0.25-0.06,0.5-0.06,0.76
		c0,0.25-0.01,0.48-0.01,0.69C29.43,115,29.44,115.35,29.46,115.75z"/>
	<path class="st4" d="M36.35,112.66v0.84h0.02c0.17-0.34,0.43-0.59,0.79-0.75c0.36-0.16,0.76-0.23,1.19-0.23
		c0.48,0,0.9,0.09,1.25,0.26c0.36,0.18,0.65,0.41,0.89,0.71c0.24,0.3,0.41,0.65,0.53,1.04c0.12,0.39,0.18,0.81,0.18,1.25
		c0,0.44-0.06,0.86-0.17,1.25c-0.12,0.39-0.29,0.73-0.53,1.03c-0.24,0.29-0.53,0.52-0.89,0.69c-0.36,0.17-0.77,0.25-1.24,0.25
		c-0.15,0-0.32-0.02-0.51-0.05c-0.19-0.03-0.37-0.08-0.56-0.16c-0.18-0.07-0.36-0.17-0.52-0.29c-0.16-0.12-0.3-0.28-0.41-0.46h-0.02
		v3.19h-1.02v-8.57H36.35z M40.01,114.86c-0.08-0.28-0.19-0.52-0.35-0.74c-0.16-0.22-0.36-0.39-0.6-0.52
		c-0.24-0.13-0.53-0.19-0.86-0.19c-0.34,0-0.64,0.07-0.88,0.2c-0.24,0.14-0.44,0.31-0.59,0.53c-0.15,0.22-0.26,0.47-0.33,0.75
		c-0.07,0.28-0.1,0.56-0.1,0.85c0,0.3,0.04,0.6,0.11,0.88c0.07,0.29,0.19,0.54,0.34,0.75c0.16,0.22,0.36,0.39,0.61,0.52
		c0.25,0.13,0.55,0.2,0.9,0.2c0.35,0,0.65-0.07,0.88-0.2c0.24-0.14,0.43-0.32,0.57-0.54c0.14-0.22,0.25-0.48,0.31-0.77
		c0.06-0.29,0.1-0.58,0.1-0.89C40.13,115.42,40.09,115.14,40.01,114.86z"/>
	<path class="st4" d="M41.91,112.66h1.31l1.49,2.17l1.55-2.17h1.22l-2.14,2.86l2.4,3.35h-1.31l-1.73-2.57l-1.73,2.57h-1.24
		l2.33-3.26L41.91,112.66z"/>
</g>
<g>
	<path class="st4" d="M199.31,95.89v7.61h4.54v0.96h-5.68v-8.57H199.31z"/>
	<path class="st4" d="M209.44,104.59c-0.26,0-0.47-0.07-0.63-0.22c-0.16-0.15-0.23-0.39-0.23-0.73c-0.28,0.34-0.61,0.58-0.98,0.73
		c-0.37,0.15-0.77,0.22-1.21,0.22c-0.28,0-0.54-0.03-0.79-0.09c-0.25-0.06-0.47-0.16-0.65-0.3c-0.19-0.14-0.34-0.32-0.44-0.54
		c-0.11-0.22-0.16-0.49-0.16-0.8c0-0.35,0.06-0.64,0.18-0.86c0.12-0.22,0.28-0.41,0.47-0.55c0.2-0.14,0.42-0.25,0.67-0.32
		c0.25-0.07,0.51-0.13,0.77-0.18c0.28-0.06,0.55-0.1,0.8-0.13c0.25-0.03,0.47-0.07,0.67-0.12c0.19-0.05,0.34-0.13,0.46-0.23
		c0.11-0.1,0.17-0.25,0.17-0.44c0-0.22-0.04-0.4-0.13-0.54c-0.08-0.13-0.19-0.24-0.32-0.31c-0.13-0.07-0.28-0.12-0.44-0.14
		c-0.16-0.02-0.33-0.04-0.49-0.04c-0.43,0-0.79,0.08-1.08,0.25c-0.29,0.16-0.44,0.47-0.47,0.93h-1.02c0.02-0.38,0.1-0.71,0.24-0.97
		c0.14-0.26,0.34-0.48,0.58-0.64c0.24-0.16,0.52-0.28,0.83-0.35c0.31-0.07,0.64-0.11,0.98-0.11c0.28,0,0.56,0.02,0.83,0.06
		c0.28,0.04,0.53,0.12,0.75,0.25c0.22,0.12,0.4,0.3,0.54,0.52c0.14,0.22,0.2,0.52,0.2,0.88v3.19c0,0.24,0.01,0.42,0.04,0.53
		c0.03,0.11,0.12,0.17,0.28,0.17c0.09,0,0.19-0.02,0.31-0.06v0.79C210,104.54,209.75,104.59,209.44,104.59z M208.01,101.47
		c-0.21,0.04-0.43,0.08-0.65,0.11c-0.23,0.03-0.46,0.06-0.69,0.1c-0.23,0.04-0.44,0.09-0.62,0.17c-0.18,0.08-0.33,0.2-0.45,0.34
		c-0.12,0.15-0.17,0.35-0.17,0.61c0,0.17,0.03,0.31,0.1,0.43c0.07,0.12,0.16,0.21,0.26,0.28c0.11,0.07,0.24,0.12,0.38,0.16
		c0.15,0.03,0.3,0.05,0.45,0.05c0.34,0,0.62-0.05,0.86-0.14c0.24-0.09,0.44-0.21,0.59-0.35c0.15-0.14,0.26-0.29,0.34-0.46
		c0.07-0.16,0.11-0.32,0.11-0.46v-1.04C208.39,101.36,208.22,101.42,208.01,101.47z"/>
	<path class="st4" d="M212.04,98.26v1.31h0.02c0.25-0.5,0.55-0.88,0.91-1.12c0.36-0.24,0.82-0.35,1.37-0.34v1.08
		c-0.41,0-0.76,0.06-1.04,0.17c-0.29,0.11-0.52,0.28-0.7,0.49c-0.18,0.22-0.3,0.48-0.38,0.79c-0.08,0.31-0.12,0.66-0.12,1.06v2.76
		h-1.02v-6.21H212.04z"/>
	<path class="st4" d="M219.44,106.22c-0.46,0.5-1.19,0.76-2.18,0.76c-0.29,0-0.58-0.03-0.88-0.1c-0.3-0.06-0.57-0.17-0.82-0.31
		c-0.24-0.14-0.45-0.33-0.61-0.56c-0.16-0.23-0.25-0.52-0.26-0.85h1.02c0.01,0.18,0.07,0.34,0.17,0.47c0.11,0.13,0.24,0.23,0.4,0.31
		c0.16,0.08,0.33,0.14,0.51,0.17c0.18,0.04,0.36,0.05,0.53,0.05c0.34,0,0.62-0.06,0.85-0.17c0.23-0.12,0.42-0.28,0.58-0.48
		c0.15-0.2,0.26-0.45,0.33-0.74c0.07-0.29,0.1-0.6,0.1-0.95v-0.41h-0.02c-0.18,0.38-0.44,0.67-0.8,0.85
		c-0.36,0.18-0.73,0.27-1.13,0.27c-0.46,0-0.87-0.08-1.21-0.25c-0.34-0.17-0.63-0.39-0.87-0.68c-0.23-0.28-0.41-0.62-0.52-1
		c-0.12-0.38-0.17-0.78-0.17-1.21c0-0.37,0.05-0.75,0.14-1.13c0.1-0.39,0.26-0.74,0.48-1.06c0.22-0.32,0.52-0.58,0.89-0.78
		c0.37-0.2,0.82-0.31,1.36-0.31c0.39,0,0.75,0.09,1.08,0.26c0.33,0.17,0.58,0.43,0.77,0.77h0.01v-0.89h0.96v5.68
		C220.13,104.95,219.9,105.71,219.44,106.22z M218.13,103.42c0.24-0.14,0.43-0.32,0.57-0.55c0.14-0.23,0.25-0.49,0.32-0.77
		c0.07-0.29,0.1-0.58,0.1-0.86c0-0.27-0.03-0.54-0.1-0.8c-0.06-0.26-0.17-0.5-0.31-0.71c-0.14-0.21-0.32-0.38-0.54-0.51
		c-0.22-0.13-0.5-0.19-0.82-0.19c-0.33,0-0.61,0.06-0.84,0.19c-0.23,0.12-0.42,0.29-0.57,0.5c-0.15,0.21-0.26,0.45-0.32,0.72
		c-0.07,0.27-0.1,0.56-0.1,0.85c0,0.28,0.03,0.56,0.08,0.84c0.06,0.28,0.15,0.53,0.29,0.76c0.14,0.23,0.32,0.41,0.54,0.55
		c0.22,0.14,0.5,0.21,0.84,0.21C217.61,103.64,217.9,103.57,218.13,103.42z"/>
	<path class="st4" d="M226.06,104.07c-0.46,0.35-1.05,0.53-1.75,0.53c-0.5,0-0.93-0.08-1.29-0.24c-0.37-0.16-0.67-0.38-0.92-0.67
		c-0.25-0.29-0.43-0.63-0.56-1.03c-0.12-0.4-0.19-0.84-0.21-1.31c0-0.47,0.07-0.9,0.22-1.29c0.14-0.39,0.35-0.73,0.61-1.02
		c0.26-0.29,0.57-0.51,0.92-0.67c0.36-0.16,0.75-0.24,1.17-0.24c0.55,0,1.01,0.11,1.37,0.34c0.36,0.23,0.66,0.52,0.88,0.87
		c0.22,0.35,0.37,0.74,0.46,1.15c0.08,0.42,0.12,0.81,0.1,1.19h-4.64c-0.01,0.27,0.02,0.53,0.1,0.77c0.07,0.24,0.19,0.46,0.35,0.65
		c0.16,0.19,0.36,0.34,0.61,0.45c0.25,0.11,0.54,0.17,0.88,0.17c0.43,0,0.79-0.1,1.06-0.3c0.28-0.2,0.46-0.5,0.55-0.91h1.01
		C226.82,103.19,226.53,103.72,226.06,104.07z M225.81,100.08c-0.09-0.22-0.21-0.4-0.37-0.56c-0.16-0.16-0.34-0.28-0.55-0.37
		c-0.21-0.09-0.45-0.14-0.7-0.14c-0.26,0-0.5,0.05-0.71,0.14c-0.21,0.09-0.39,0.22-0.55,0.38c-0.15,0.16-0.27,0.35-0.36,0.56
		c-0.09,0.21-0.14,0.44-0.16,0.68h3.56C225.96,100.53,225.91,100.3,225.81,100.08z"/>
	<path class="st4" d="M229.04,98.26v1.31h0.02c0.25-0.5,0.55-0.88,0.91-1.12c0.36-0.24,0.82-0.35,1.37-0.34v1.08
		c-0.41,0-0.76,0.06-1.04,0.17c-0.29,0.11-0.52,0.28-0.7,0.49c-0.18,0.22-0.3,0.48-0.38,0.79c-0.08,0.31-0.12,0.66-0.12,1.06v2.76
		h-1.02v-6.21H229.04z"/>
	<path class="st4" d="M181.94,113.56v-0.9h1.04v-0.92c0-0.5,0.15-0.89,0.44-1.15c0.29-0.26,0.72-0.39,1.28-0.39
		c0.1,0,0.21,0.01,0.33,0.02c0.12,0.02,0.23,0.04,0.33,0.07v0.89c-0.09-0.03-0.18-0.05-0.29-0.07c-0.1-0.01-0.2-0.02-0.29-0.02
		c-0.25,0-0.44,0.05-0.58,0.14c-0.14,0.1-0.2,0.28-0.2,0.55v0.86h1.2v0.9H184v5.3h-1.02v-5.3H181.94z"/>
	<path class="st4" d="M185.97,114.49c0.13-0.4,0.32-0.74,0.58-1.03c0.26-0.29,0.57-0.52,0.95-0.69c0.38-0.17,0.81-0.25,1.3-0.25
		c0.5,0,0.93,0.08,1.3,0.25c0.37,0.17,0.69,0.4,0.94,0.69c0.26,0.29,0.45,0.63,0.58,1.03c0.13,0.4,0.19,0.82,0.19,1.28
		c0,0.46-0.06,0.88-0.19,1.27c-0.13,0.39-0.32,0.73-0.58,1.03c-0.26,0.29-0.57,0.52-0.94,0.68c-0.37,0.16-0.81,0.25-1.3,0.25
		c-0.49,0-0.92-0.08-1.3-0.25c-0.38-0.16-0.69-0.39-0.95-0.68c-0.26-0.29-0.45-0.63-0.58-1.03c-0.13-0.39-0.19-0.82-0.19-1.27
		C185.78,115.31,185.84,114.89,185.97,114.49z M187.01,116.77c0.1,0.29,0.24,0.54,0.41,0.73c0.18,0.2,0.38,0.35,0.62,0.45
		c0.24,0.1,0.49,0.16,0.75,0.16c0.26,0,0.51-0.05,0.75-0.16c0.24-0.1,0.44-0.25,0.62-0.45c0.18-0.2,0.31-0.44,0.41-0.73
		c0.1-0.29,0.15-0.62,0.15-1c0-0.38-0.05-0.71-0.15-1c-0.1-0.29-0.24-0.54-0.41-0.74c-0.18-0.2-0.38-0.35-0.62-0.46
		c-0.24-0.1-0.49-0.16-0.75-0.16c-0.26,0-0.51,0.05-0.75,0.16c-0.24,0.1-0.44,0.26-0.62,0.46c-0.18,0.2-0.31,0.45-0.41,0.74
		c-0.1,0.29-0.15,0.63-0.15,1C186.86,116.14,186.91,116.48,187.01,116.77z"/>
	<path class="st4" d="M193.93,112.66v1.31h0.02c0.25-0.5,0.55-0.88,0.91-1.12c0.36-0.24,0.82-0.35,1.37-0.34v1.08
		c-0.41,0-0.76,0.06-1.04,0.17c-0.29,0.11-0.52,0.28-0.7,0.49c-0.18,0.22-0.3,0.48-0.38,0.79c-0.08,0.31-0.12,0.66-0.12,1.06v2.76
		h-1.02v-6.2H193.93z"/>
	<path class="st4" d="M202.82,118.86v-6.1h-2.21v-0.82c0.29,0,0.57-0.02,0.84-0.07c0.27-0.04,0.52-0.13,0.74-0.25
		c0.22-0.12,0.41-0.28,0.56-0.49c0.15-0.21,0.26-0.47,0.31-0.79h0.78v8.51H202.82z"/>
	<path class="st4" d="M206.9,112.17c0.11-0.37,0.29-0.69,0.52-0.95c0.24-0.27,0.53-0.48,0.88-0.63c0.35-0.15,0.75-0.23,1.2-0.23
		c0.37,0,0.71,0.05,1.04,0.16c0.32,0.11,0.61,0.26,0.85,0.47c0.24,0.2,0.43,0.46,0.57,0.76c0.14,0.3,0.21,0.66,0.21,1.06
		c0,0.38-0.06,0.71-0.17,1c-0.12,0.29-0.27,0.54-0.46,0.77c-0.19,0.23-0.41,0.43-0.66,0.62c-0.25,0.18-0.5,0.36-0.77,0.53
		c-0.26,0.16-0.53,0.32-0.79,0.47c-0.26,0.16-0.51,0.32-0.72,0.5c-0.22,0.18-0.41,0.37-0.56,0.57c-0.16,0.21-0.26,0.44-0.31,0.7
		h4.37v0.9h-5.56c0.04-0.5,0.13-0.93,0.27-1.29c0.14-0.36,0.32-0.67,0.53-0.93c0.22-0.26,0.46-0.5,0.73-0.7
		c0.27-0.2,0.56-0.39,0.85-0.56c0.36-0.22,0.68-0.43,0.95-0.62c0.27-0.19,0.5-0.38,0.68-0.57c0.18-0.19,0.32-0.4,0.41-0.62
		c0.09-0.22,0.14-0.48,0.14-0.78c0-0.23-0.04-0.44-0.13-0.63c-0.09-0.19-0.21-0.35-0.35-0.49c-0.15-0.13-0.32-0.24-0.52-0.31
		c-0.2-0.07-0.41-0.11-0.64-0.11c-0.3,0-0.55,0.06-0.76,0.19c-0.21,0.12-0.39,0.29-0.52,0.49c-0.14,0.2-0.23,0.43-0.29,0.68
		c-0.06,0.25-0.09,0.51-0.08,0.76h-1.02C206.74,112.93,206.79,112.53,206.9,112.17z"/>
	<path class="st4" d="M213.44,113.72c0.02-0.34,0.06-0.66,0.12-0.98c0.06-0.32,0.16-0.62,0.28-0.91c0.12-0.29,0.28-0.54,0.49-0.76
		c0.21-0.22,0.47-0.39,0.79-0.52c0.32-0.13,0.69-0.19,1.13-0.19c0.44,0,0.82,0.06,1.13,0.19c0.32,0.13,0.58,0.3,0.79,0.52
		c0.21,0.22,0.37,0.47,0.49,0.76c0.12,0.29,0.21,0.59,0.28,0.91c0.06,0.32,0.1,0.65,0.12,0.98c0.02,0.34,0.02,0.66,0.02,0.97
		c0,0.31-0.01,0.64-0.02,0.97c-0.02,0.34-0.06,0.66-0.12,0.98c-0.06,0.32-0.16,0.62-0.28,0.91c-0.12,0.28-0.28,0.53-0.49,0.75
		c-0.21,0.21-0.47,0.39-0.78,0.51c-0.31,0.12-0.69,0.19-1.14,0.19c-0.44,0-0.82-0.06-1.13-0.19c-0.32-0.12-0.58-0.29-0.79-0.51
		c-0.21-0.22-0.37-0.47-0.49-0.75c-0.12-0.28-0.21-0.59-0.28-0.91c-0.06-0.32-0.1-0.65-0.12-0.98c-0.02-0.34-0.02-0.66-0.02-0.97
		C213.41,114.38,213.42,114.05,213.44,113.72z M214.52,115.75c0.02,0.4,0.08,0.77,0.19,1.12c0.11,0.35,0.28,0.64,0.52,0.88
		c0.24,0.24,0.58,0.36,1.01,0.36c0.43,0,0.77-0.12,1.01-0.36c0.24-0.24,0.41-0.53,0.52-0.88c0.11-0.35,0.17-0.72,0.19-1.12
		c0.02-0.4,0.03-0.75,0.03-1.07c0-0.21,0-0.44-0.01-0.69c0-0.25-0.02-0.5-0.06-0.76c-0.04-0.25-0.09-0.5-0.16-0.74
		c-0.07-0.24-0.17-0.45-0.3-0.63c-0.13-0.18-0.3-0.33-0.5-0.44c-0.2-0.11-0.44-0.17-0.73-0.17c-0.29,0-0.53,0.06-0.73,0.17
		c-0.2,0.11-0.37,0.26-0.5,0.44c-0.13,0.18-0.23,0.39-0.3,0.63c-0.07,0.24-0.12,0.49-0.16,0.74c-0.04,0.25-0.06,0.5-0.06,0.76
		c0,0.25-0.01,0.48-0.01,0.69C214.49,114.99,214.5,115.35,214.52,115.75z"/>
	<path class="st4" d="M221.41,112.66v0.84h0.02c0.17-0.34,0.43-0.59,0.79-0.75c0.36-0.16,0.76-0.23,1.19-0.23
		c0.48,0,0.9,0.09,1.25,0.26c0.36,0.18,0.65,0.41,0.89,0.71c0.24,0.3,0.41,0.65,0.53,1.04c0.12,0.39,0.18,0.81,0.18,1.25
		c0,0.44-0.06,0.86-0.17,1.25c-0.12,0.39-0.29,0.73-0.53,1.03c-0.24,0.29-0.53,0.52-0.89,0.69c-0.36,0.17-0.77,0.25-1.24,0.25
		c-0.15,0-0.32-0.02-0.51-0.05c-0.19-0.03-0.37-0.08-0.56-0.16c-0.18-0.07-0.36-0.17-0.52-0.29c-0.16-0.12-0.3-0.28-0.41-0.46h-0.02
		v3.19h-1.02v-8.57H221.41z M225.07,114.86c-0.08-0.28-0.19-0.52-0.35-0.74c-0.16-0.22-0.36-0.39-0.6-0.52
		c-0.24-0.13-0.53-0.19-0.86-0.19c-0.34,0-0.64,0.07-0.88,0.2c-0.24,0.14-0.44,0.31-0.59,0.53c-0.15,0.22-0.26,0.47-0.33,0.75
		c-0.07,0.28-0.1,0.56-0.1,0.85c0,0.3,0.04,0.6,0.11,0.88c0.07,0.28,0.19,0.53,0.34,0.75c0.16,0.22,0.36,0.39,0.61,0.52
		c0.25,0.13,0.55,0.2,0.9,0.2c0.35,0,0.65-0.07,0.88-0.2c0.24-0.14,0.43-0.32,0.57-0.54c0.14-0.22,0.25-0.48,0.31-0.77
		c0.06-0.29,0.1-0.58,0.1-0.89C225.19,115.42,225.15,115.14,225.07,114.86z"/>
	<path class="st4" d="M226.97,112.66h1.31l1.49,2.17l1.55-2.17h1.22l-2.14,2.86l2.4,3.35h-1.31l-1.73-2.57l-1.73,2.57h-1.24
		l2.33-3.26L226.97,112.66z"/>
	<path class="st4" d="M242.87,115.42v0.82h-2.62v2.63h-0.82v-2.63h-2.62v-0.82h2.62v-2.63h0.82v2.63H242.87z"/>
</g>
<path class="st5" d="M16.29,276C7.29,276,0,283.29,0,292.29c0,7.2,4.67,13.3,11.14,15.46c0.81,0.15,1.11-0.35,1.11-0.79
	c0-0.39-0.01-1.41-0.02-2.77c-4.53,0.98-5.49-2.18-5.49-2.18c-0.74-1.88-1.81-2.38-1.81-2.38c-1.48-1.01,0.11-0.99,0.11-0.99
	c1.63,0.12,2.5,1.68,2.5,1.68c1.45,2.49,3.81,1.77,4.74,1.35c0.15-1.05,0.57-1.77,1.03-2.18c-3.62-0.41-7.42-1.81-7.42-8.05
	c0-1.78,0.63-3.23,1.68-4.37c-0.17-0.41-0.73-2.07,0.16-4.31c0,0,1.37-0.44,4.48,1.67c1.3-0.36,2.69-0.54,4.08-0.55
	c1.38,0.01,2.78,0.19,4.08,0.55c3.11-2.11,4.48-1.67,4.48-1.67c0.89,2.24,0.33,3.9,0.16,4.31c1.04,1.14,1.67,2.59,1.67,4.37
	c0,6.26-3.81,7.63-7.44,8.04c0.58,0.5,1.11,1.5,1.11,3.02c0,2.18-0.02,3.93-0.02,4.47c0,0.44,0.29,0.94,1.12,0.78
	c6.47-2.16,11.13-8.26,11.13-15.45C32.58,283.29,25.29,276,16.29,276z"/>
<g>
	<path class="st5" d="M214.29,226.99c-33.35,0-60.39,27.04-60.39,60.39c0,26.68,17.3,49.32,41.3,57.3c3.02,0.56,4.13-1.31,4.13-2.91
		c0-1.44-0.06-6.2-0.08-11.24c-16.8,3.65-20.34-7.12-20.34-7.12c-2.75-6.98-6.71-8.84-6.71-8.84c-5.48-3.75,0.41-3.67,0.41-3.67
		c6.06,0.43,9.26,6.22,9.26,6.22c5.39,9.23,14.13,6.56,17.57,5.02c0.54-3.9,2.11-6.57,3.83-8.08c-13.41-1.53-27.51-6.71-27.51-29.84
		c0-6.59,2.36-11.98,6.22-16.21c-0.63-1.52-2.69-7.66,0.58-15.98c0,0,5.07-1.62,16.61,6.19c4.82-1.34,9.98-2.01,15.12-2.03
		c5.13,0.02,10.3,0.69,15.13,2.03c11.53-7.81,16.59-6.19,16.59-6.19c3.29,8.32,1.22,14.46,0.59,15.98
		c3.87,4.23,6.21,9.62,6.21,16.21c0,23.19-14.13,28.3-27.57,29.8c2.17,1.87,4.1,5.55,4.1,11.18c0,8.08-0.07,14.58-0.07,16.57
		c0,1.61,1.09,3.49,4.15,2.9c23.98-7.99,41.26-30.62,41.26-57.29C274.68,254.03,247.64,226.99,214.29,226.99z"/>
	<path class="st6" d="M176.77,313.69c-0.13,0.3-0.61,0.39-1.04,0.18c-0.44-0.2-0.68-0.61-0.54-0.91c0.13-0.31,0.6-0.39,1.04-0.19
		C176.67,312.98,176.92,313.39,176.77,313.69L176.77,313.69z M176.03,313.14"/>
	<path class="st6" d="M179.22,316.42c-0.29,0.27-0.85,0.14-1.23-0.28c-0.4-0.42-0.47-0.98-0.18-1.25c0.3-0.27,0.84-0.14,1.24,0.28
		C179.44,315.59,179.52,316.15,179.22,316.42L179.22,316.42z M178.64,315.8"/>
	<path class="st6" d="M181.6,319.9c-0.37,0.26-0.98,0.02-1.35-0.52c-0.37-0.54-0.37-1.18,0.01-1.44c0.37-0.26,0.97-0.03,1.35,0.51
		C181.98,318.99,181.98,319.64,181.6,319.9L181.6,319.9z M181.6,319.9"/>
	<path class="st6" d="M184.86,323.26c-0.33,0.37-1.04,0.27-1.55-0.23c-0.53-0.49-0.67-1.18-0.34-1.54c0.34-0.37,1.04-0.26,1.56,0.23
		C185.06,322.2,185.21,322.9,184.86,323.26L184.86,323.26z M184.86,323.26"/>
	<path class="st6" d="M189.36,325.21c-0.15,0.47-0.83,0.69-1.51,0.49c-0.68-0.21-1.13-0.76-0.99-1.24c0.14-0.48,0.82-0.7,1.51-0.49
		C189.06,324.18,189.5,324.73,189.36,325.21L189.36,325.21z M189.36,325.21"/>
	<path class="st6" d="M194.3,325.57c0.02,0.5-0.56,0.91-1.28,0.92c-0.72,0.02-1.31-0.39-1.31-0.88c0-0.5,0.57-0.91,1.29-0.92
		C193.72,324.68,194.3,325.08,194.3,325.57L194.3,325.57z M194.3,325.57"/>
	<path class="st6" d="M198.9,324.79c0.09,0.49-0.41,0.98-1.13,1.12c-0.7,0.13-1.35-0.17-1.44-0.65c-0.09-0.5,0.42-1,1.12-1.13
		C198.17,324,198.81,324.3,198.9,324.79L198.9,324.79z M198.9,324.79"/>
</g>
<g>
	<g>
		<line class="st2" x1="88.58" y1="221.06" x2="88.58" y2="221.56"/>
		<line class="st3" x1="88.58" y1="223.56" x2="88.58" y2="357.55"/>
		<line class="st2" x1="88.58" y1="358.55" x2="88.58" y2="359.05"/>
	</g>
</g>
<g>
	<path class="st4" d="M-3.04,373.07c-0.38-0.28-0.87-0.41-1.46-0.41c-0.24,0-0.48,0.02-0.71,0.07c-0.23,0.05-0.44,0.13-0.62,0.24
		c-0.18,0.11-0.32,0.26-0.43,0.45c-0.11,0.19-0.16,0.42-0.16,0.7c0,0.26,0.08,0.48,0.23,0.64c0.16,0.16,0.36,0.3,0.62,0.4
		c0.26,0.1,0.55,0.19,0.88,0.26c0.33,0.07,0.66,0.14,1,0.22c0.34,0.08,0.67,0.17,1,0.28c0.33,0.11,0.62,0.25,0.88,0.44
		c0.26,0.18,0.47,0.42,0.62,0.7c0.16,0.28,0.23,0.63,0.23,1.06c0,0.46-0.1,0.85-0.31,1.17c-0.2,0.32-0.47,0.59-0.79,0.79
		c-0.32,0.2-0.68,0.35-1.07,0.44s-0.79,0.14-1.18,0.14c-0.48,0-0.93-0.06-1.36-0.18c-0.43-0.12-0.8-0.3-1.13-0.55
		c-0.32-0.24-0.58-0.56-0.77-0.94c-0.19-0.38-0.28-0.83-0.28-1.35h1.08c0,0.36,0.07,0.67,0.21,0.93c0.14,0.26,0.32,0.47,0.55,0.64
		c0.23,0.17,0.49,0.29,0.8,0.37c0.3,0.08,0.62,0.12,0.94,0.12c0.26,0,0.51-0.02,0.77-0.07c0.26-0.05,0.49-0.13,0.7-0.25
		c0.21-0.12,0.38-0.27,0.5-0.47c0.13-0.2,0.19-0.46,0.19-0.77c0-0.3-0.08-0.54-0.23-0.72c-0.16-0.18-0.36-0.33-0.62-0.45
		c-0.26-0.12-0.55-0.21-0.88-0.28c-0.33-0.07-0.66-0.15-1-0.22c-0.34-0.08-0.67-0.16-1-0.26c-0.33-0.1-0.62-0.23-0.88-0.4
		c-0.26-0.16-0.47-0.38-0.62-0.64c-0.16-0.26-0.23-0.59-0.23-0.98c0-0.43,0.09-0.81,0.26-1.12c0.18-0.32,0.41-0.58,0.7-0.78
		c0.29-0.2,0.62-0.36,1-0.46c0.37-0.1,0.75-0.15,1.15-0.15c0.44,0,0.85,0.05,1.22,0.16c0.38,0.1,0.71,0.27,0.99,0.49
		c0.28,0.22,0.51,0.51,0.67,0.85c0.16,0.34,0.25,0.75,0.27,1.22h-1.08C-2.44,373.79-2.66,373.34-3.04,373.07z"/>
	<path class="st4" d="M1.23,374.26v0.91h0.02c0.46-0.71,1.13-1.06,2-1.06c0.38,0,0.73,0.08,1.04,0.24c0.31,0.16,0.53,0.43,0.66,0.82
		c0.21-0.34,0.48-0.6,0.82-0.78c0.34-0.18,0.71-0.28,1.12-0.28c0.31,0,0.59,0.03,0.85,0.1c0.25,0.07,0.47,0.17,0.65,0.32
		c0.18,0.14,0.32,0.33,0.42,0.56c0.1,0.23,0.15,0.5,0.15,0.82v4.55H7.95v-4.07c0-0.19-0.02-0.37-0.05-0.54
		c-0.03-0.17-0.09-0.31-0.18-0.44c-0.09-0.12-0.21-0.22-0.37-0.29c-0.16-0.07-0.36-0.11-0.61-0.11c-0.5,0-0.9,0.14-1.19,0.43
		c-0.29,0.29-0.43,0.67-0.43,1.15v3.86H4.11v-4.07c0-0.2-0.02-0.38-0.05-0.55c-0.04-0.17-0.1-0.31-0.19-0.44
		c-0.09-0.12-0.21-0.22-0.35-0.29c-0.15-0.07-0.34-0.1-0.57-0.1c-0.3,0-0.55,0.06-0.76,0.18c-0.21,0.12-0.38,0.26-0.52,0.43
		c-0.13,0.17-0.23,0.34-0.29,0.52c-0.06,0.18-0.09,0.33-0.09,0.45v3.86H0.27v-6.2H1.23z"/>
	<path class="st4" d="M15.27,380.6c-0.26,0-0.47-0.07-0.63-0.22c-0.16-0.15-0.23-0.39-0.23-0.73c-0.28,0.34-0.61,0.58-0.98,0.73
		c-0.37,0.15-0.77,0.22-1.21,0.22c-0.28,0-0.54-0.03-0.79-0.09c-0.25-0.06-0.47-0.16-0.65-0.3c-0.19-0.14-0.34-0.32-0.44-0.54
		c-0.11-0.22-0.16-0.49-0.16-0.8c0-0.35,0.06-0.64,0.18-0.86c0.12-0.22,0.28-0.41,0.47-0.55c0.2-0.14,0.42-0.25,0.67-0.32
		c0.25-0.07,0.51-0.13,0.77-0.18c0.28-0.06,0.55-0.1,0.8-0.12c0.25-0.03,0.47-0.07,0.67-0.12c0.19-0.05,0.34-0.13,0.46-0.23
		c0.11-0.1,0.17-0.25,0.17-0.44c0-0.22-0.04-0.4-0.13-0.54c-0.08-0.14-0.19-0.24-0.32-0.31c-0.13-0.07-0.28-0.12-0.44-0.14
		c-0.16-0.02-0.33-0.04-0.49-0.04c-0.43,0-0.79,0.08-1.08,0.25c-0.29,0.16-0.44,0.47-0.47,0.93h-1.02c0.02-0.38,0.1-0.71,0.24-0.97
		c0.14-0.26,0.34-0.48,0.58-0.64c0.24-0.16,0.52-0.28,0.83-0.35c0.31-0.07,0.64-0.11,0.98-0.11c0.28,0,0.56,0.02,0.83,0.06
		c0.28,0.04,0.53,0.12,0.75,0.25c0.22,0.12,0.4,0.3,0.54,0.52c0.14,0.22,0.2,0.52,0.2,0.88v3.19c0,0.24,0.01,0.42,0.04,0.53
		c0.03,0.11,0.12,0.17,0.28,0.17c0.09,0,0.19-0.02,0.31-0.06v0.79C15.83,380.54,15.59,380.6,15.27,380.6z M13.85,377.47
		c-0.21,0.04-0.43,0.08-0.65,0.11c-0.23,0.03-0.46,0.06-0.69,0.1c-0.23,0.04-0.44,0.09-0.62,0.17c-0.18,0.08-0.33,0.19-0.45,0.34
		c-0.12,0.15-0.17,0.35-0.17,0.61c0,0.17,0.03,0.31,0.1,0.43c0.07,0.12,0.16,0.21,0.26,0.28c0.11,0.07,0.24,0.12,0.38,0.16
		c0.15,0.03,0.3,0.05,0.45,0.05c0.34,0,0.62-0.04,0.86-0.14c0.24-0.09,0.44-0.21,0.59-0.35c0.15-0.14,0.26-0.29,0.34-0.46
		c0.07-0.16,0.11-0.32,0.11-0.46v-1.04C14.22,377.36,14.05,377.43,13.85,377.47z"/>
	<path class="st4" d="M18.03,371.9v8.57h-1.02v-8.57H18.03z"/>
	<path class="st4" d="M20.7,371.9v8.57h-1.02v-8.57H20.7z"/>
	<path class="st4" d="M-34.47,389.56v-0.9h1.04v-0.92c0-0.5,0.15-0.89,0.44-1.15c0.29-0.26,0.72-0.39,1.28-0.39
		c0.1,0,0.21,0.01,0.33,0.02c0.12,0.02,0.23,0.04,0.33,0.07v0.89c-0.09-0.03-0.18-0.05-0.29-0.07c-0.1-0.01-0.2-0.02-0.29-0.02
		c-0.25,0-0.44,0.05-0.58,0.14c-0.14,0.1-0.2,0.28-0.2,0.55v0.86h1.2v0.9h-1.2v5.3h-1.02v-5.3H-34.47z"/>
	<path class="st4" d="M-30.43,390.49c0.13-0.4,0.32-0.74,0.58-1.03c0.26-0.29,0.57-0.52,0.95-0.69c0.38-0.17,0.81-0.25,1.3-0.25
		c0.5,0,0.93,0.08,1.3,0.25c0.37,0.17,0.69,0.4,0.94,0.69c0.26,0.29,0.45,0.64,0.58,1.03c0.13,0.4,0.19,0.82,0.19,1.28
		c0,0.46-0.06,0.88-0.19,1.27c-0.13,0.39-0.32,0.73-0.58,1.03c-0.26,0.29-0.57,0.52-0.94,0.68c-0.37,0.16-0.81,0.25-1.3,0.25
		c-0.49,0-0.92-0.08-1.3-0.25c-0.38-0.16-0.69-0.39-0.95-0.68c-0.26-0.29-0.45-0.63-0.58-1.03c-0.13-0.39-0.19-0.82-0.19-1.27
		C-30.63,391.31-30.56,390.89-30.43,390.49z M-29.4,392.77c0.1,0.29,0.24,0.54,0.41,0.73c0.18,0.2,0.38,0.35,0.62,0.45
		c0.24,0.1,0.49,0.16,0.75,0.16c0.26,0,0.51-0.05,0.75-0.16c0.24-0.1,0.44-0.25,0.62-0.45c0.18-0.2,0.31-0.44,0.41-0.73
		c0.1-0.29,0.15-0.63,0.15-1c0-0.38-0.05-0.71-0.15-1c-0.1-0.29-0.24-0.54-0.41-0.74c-0.18-0.2-0.38-0.35-0.62-0.46
		c-0.24-0.1-0.49-0.16-0.75-0.16c-0.26,0-0.51,0.05-0.75,0.16c-0.24,0.1-0.44,0.26-0.62,0.46c-0.18,0.2-0.31,0.45-0.41,0.74
		c-0.1,0.29-0.15,0.62-0.15,1C-29.55,392.14-29.5,392.48-29.4,392.77z"/>
	<path class="st4" d="M-22.48,388.66v1.31h0.02c0.25-0.5,0.55-0.88,0.91-1.12c0.36-0.24,0.82-0.35,1.37-0.34v1.08
		c-0.41,0-0.76,0.06-1.04,0.17c-0.29,0.11-0.52,0.28-0.7,0.49c-0.18,0.21-0.3,0.48-0.38,0.79c-0.08,0.31-0.12,0.66-0.12,1.06v2.76
		h-1.02v-6.2H-22.48z"/>
	<path class="st4" d="M-13.59,394.86v-6.1h-2.21v-0.82c0.29,0,0.57-0.02,0.84-0.07c0.27-0.04,0.52-0.12,0.74-0.25
		c0.22-0.12,0.41-0.28,0.56-0.49c0.15-0.21,0.26-0.47,0.31-0.79h0.78v8.51H-13.59z"/>
	<path class="st4" d="M-5.64,387.6c-0.25-0.23-0.58-0.35-0.98-0.35c-0.43,0-0.78,0.11-1.04,0.32c-0.26,0.21-0.47,0.48-0.62,0.8
		c-0.15,0.32-0.25,0.67-0.31,1.05c-0.06,0.38-0.09,0.73-0.1,1.06l0.02,0.02c0.24-0.39,0.54-0.68,0.89-0.85
		c0.36-0.18,0.77-0.26,1.23-0.26c0.41,0,0.77,0.07,1.1,0.21c0.32,0.14,0.6,0.33,0.82,0.58c0.22,0.25,0.39,0.54,0.51,0.88
		c0.12,0.34,0.18,0.7,0.18,1.09c0,0.31-0.05,0.64-0.14,0.97c-0.1,0.34-0.25,0.64-0.47,0.92c-0.22,0.28-0.51,0.5-0.88,0.68
		C-5.8,394.91-6.25,395-6.78,395c-0.63,0-1.14-0.13-1.52-0.38c-0.38-0.26-0.68-0.58-0.89-0.98c-0.21-0.4-0.35-0.84-0.41-1.32
		c-0.07-0.48-0.1-0.94-0.1-1.39c0-0.58,0.05-1.15,0.15-1.7c0.1-0.55,0.27-1.03,0.51-1.46c0.24-0.42,0.56-0.76,0.96-1.02
		c0.4-0.26,0.9-0.38,1.51-0.38c0.7,0,1.26,0.19,1.68,0.56s0.66,0.91,0.72,1.61H-5.2C-5.25,388.14-5.39,387.84-5.64,387.6z
		 M-7.49,390.44c-0.22,0.1-0.4,0.24-0.55,0.41c-0.15,0.17-0.27,0.38-0.34,0.61c-0.08,0.24-0.11,0.49-0.11,0.75
		c0,0.26,0.04,0.51,0.12,0.74c0.08,0.23,0.19,0.43,0.34,0.6c0.15,0.17,0.33,0.3,0.55,0.4c0.22,0.1,0.47,0.15,0.75,0.15
		c0.28,0,0.53-0.05,0.74-0.15c0.21-0.1,0.39-0.24,0.53-0.41c0.14-0.18,0.25-0.38,0.33-0.61c0.08-0.23,0.11-0.47,0.11-0.71
		c0-0.26-0.03-0.51-0.1-0.75c-0.07-0.24-0.17-0.44-0.32-0.61c-0.14-0.17-0.32-0.31-0.54-0.41c-0.22-0.1-0.47-0.16-0.76-0.16
		C-7.02,390.29-7.27,390.34-7.49,390.44z"/>
	<path class="st4" d="M-1.67,388.66v0.84h0.02c0.17-0.34,0.43-0.59,0.79-0.75c0.36-0.16,0.76-0.23,1.19-0.23
		c0.48,0,0.9,0.09,1.25,0.26c0.36,0.18,0.65,0.41,0.89,0.71c0.24,0.3,0.41,0.65,0.53,1.04c0.12,0.39,0.18,0.81,0.18,1.25
		c0,0.44-0.06,0.86-0.17,1.25c-0.12,0.39-0.29,0.73-0.53,1.03c-0.24,0.29-0.53,0.52-0.89,0.69C1.24,394.91,0.83,395,0.36,395
		c-0.15,0-0.32-0.02-0.51-0.05c-0.19-0.03-0.37-0.08-0.56-0.16c-0.18-0.07-0.36-0.17-0.52-0.29c-0.16-0.12-0.3-0.28-0.41-0.46h-0.02
		v3.19h-1.02v-8.57H-1.67z M2,390.86c-0.08-0.28-0.19-0.52-0.35-0.74c-0.16-0.22-0.36-0.39-0.6-0.52c-0.24-0.13-0.53-0.19-0.86-0.19
		c-0.34,0-0.64,0.07-0.88,0.2c-0.24,0.14-0.44,0.31-0.59,0.53c-0.15,0.22-0.26,0.47-0.33,0.75c-0.07,0.28-0.1,0.56-0.1,0.85
		c0,0.3,0.04,0.6,0.11,0.88c0.07,0.29,0.19,0.54,0.34,0.75c0.16,0.22,0.36,0.39,0.61,0.52c0.25,0.13,0.55,0.2,0.9,0.2
		c0.35,0,0.65-0.07,0.88-0.2c0.24-0.14,0.43-0.32,0.57-0.54c0.14-0.22,0.25-0.48,0.31-0.77c0.06-0.29,0.1-0.58,0.1-0.89
		C2.11,391.42,2.07,391.14,2,390.86z"/>
	<path class="st4" d="M3.9,388.66h1.31l1.49,2.17l1.55-2.17h1.22l-2.14,2.86l2.4,3.35H8.42l-1.73-2.57l-1.73,2.57H3.73l2.33-3.26
		L3.9,388.66z"/>
	<path class="st4" d="M13.91,391.05v0.96h-3.47v-0.96H13.91z"/>
	<path class="st4" d="M17.76,394.86v-6.1h-2.21v-0.82c0.29,0,0.57-0.02,0.84-0.07c0.27-0.04,0.52-0.12,0.74-0.25
		c0.22-0.12,0.41-0.28,0.56-0.49c0.15-0.21,0.26-0.47,0.31-0.79h0.78v8.51H17.76z"/>
	<path class="st4" d="M21.84,388.17c0.11-0.37,0.29-0.69,0.52-0.96c0.24-0.27,0.53-0.48,0.88-0.63c0.35-0.15,0.75-0.23,1.2-0.23
		c0.37,0,0.71,0.05,1.04,0.16c0.32,0.11,0.61,0.26,0.85,0.47c0.24,0.2,0.43,0.46,0.57,0.76c0.14,0.3,0.21,0.66,0.21,1.06
		c0,0.38-0.06,0.71-0.17,1c-0.12,0.29-0.27,0.55-0.46,0.77c-0.19,0.23-0.41,0.43-0.66,0.62c-0.25,0.18-0.5,0.36-0.77,0.53
		c-0.26,0.16-0.53,0.32-0.79,0.47c-0.26,0.16-0.51,0.32-0.73,0.5c-0.22,0.18-0.41,0.37-0.56,0.57c-0.16,0.2-0.26,0.44-0.31,0.7h4.37
		v0.9h-5.56c0.04-0.5,0.13-0.93,0.27-1.29c0.14-0.36,0.32-0.67,0.53-0.93c0.22-0.26,0.46-0.5,0.73-0.7c0.27-0.2,0.56-0.39,0.85-0.56
		c0.36-0.22,0.68-0.43,0.95-0.62c0.27-0.19,0.5-0.38,0.68-0.57c0.18-0.19,0.32-0.4,0.41-0.62s0.14-0.48,0.14-0.78
		c0-0.23-0.04-0.44-0.13-0.63c-0.09-0.19-0.21-0.35-0.35-0.49c-0.15-0.14-0.32-0.24-0.52-0.31c-0.2-0.07-0.41-0.11-0.64-0.11
		c-0.3,0-0.55,0.06-0.76,0.19c-0.21,0.12-0.39,0.29-0.52,0.49c-0.14,0.2-0.23,0.43-0.29,0.68c-0.06,0.25-0.09,0.51-0.08,0.76h-1.02
		C21.68,388.94,21.73,388.54,21.84,388.17z"/>
	<path class="st4" d="M28.38,389.72c0.02-0.34,0.06-0.66,0.12-0.98c0.06-0.32,0.16-0.62,0.28-0.91c0.12-0.29,0.28-0.54,0.49-0.76
		c0.21-0.22,0.47-0.39,0.79-0.52c0.32-0.13,0.69-0.19,1.13-0.19c0.44,0,0.82,0.06,1.13,0.19c0.32,0.13,0.58,0.3,0.79,0.52
		c0.21,0.22,0.37,0.47,0.49,0.76c0.12,0.29,0.21,0.59,0.28,0.91c0.06,0.32,0.1,0.65,0.12,0.98c0.02,0.34,0.02,0.66,0.02,0.97
		s-0.01,0.64-0.02,0.97c-0.02,0.34-0.06,0.66-0.12,0.98c-0.06,0.32-0.16,0.62-0.28,0.91c-0.12,0.29-0.28,0.54-0.49,0.75
		c-0.21,0.22-0.47,0.39-0.78,0.51c-0.31,0.12-0.69,0.19-1.14,0.19c-0.44,0-0.82-0.06-1.13-0.19c-0.32-0.12-0.58-0.29-0.79-0.51
		c-0.21-0.21-0.37-0.46-0.49-0.75c-0.12-0.28-0.21-0.59-0.28-0.91c-0.06-0.32-0.1-0.65-0.12-0.98s-0.02-0.66-0.02-0.97
		S28.36,390.05,28.38,389.72z M29.46,391.75c0.02,0.4,0.08,0.77,0.19,1.12c0.11,0.35,0.28,0.64,0.52,0.88
		c0.24,0.24,0.58,0.36,1.01,0.36c0.43,0,0.77-0.12,1.01-0.36c0.24-0.24,0.41-0.53,0.52-0.88c0.11-0.35,0.17-0.72,0.19-1.12
		c0.02-0.4,0.03-0.75,0.03-1.07c0-0.21,0-0.44-0.01-0.69c0-0.25-0.02-0.5-0.06-0.76c-0.04-0.25-0.09-0.5-0.16-0.74
		c-0.07-0.24-0.17-0.45-0.3-0.63c-0.13-0.18-0.3-0.33-0.5-0.44c-0.2-0.11-0.44-0.17-0.73-0.17s-0.53,0.06-0.73,0.17
		c-0.2,0.11-0.37,0.26-0.5,0.44c-0.13,0.18-0.23,0.39-0.3,0.63c-0.07,0.24-0.12,0.49-0.16,0.74c-0.04,0.25-0.06,0.5-0.06,0.76
		c0,0.25-0.01,0.48-0.01,0.69C29.43,391,29.44,391.35,29.46,391.75z"/>
	<path class="st4" d="M36.35,388.66v0.84h0.02c0.17-0.34,0.43-0.59,0.79-0.75c0.36-0.16,0.76-0.23,1.19-0.23
		c0.48,0,0.9,0.09,1.25,0.26c0.36,0.18,0.65,0.41,0.89,0.71c0.24,0.3,0.41,0.65,0.53,1.04c0.12,0.39,0.18,0.81,0.18,1.25
		c0,0.44-0.06,0.86-0.17,1.25c-0.12,0.39-0.29,0.73-0.53,1.03c-0.24,0.29-0.53,0.52-0.89,0.69c-0.36,0.17-0.77,0.25-1.24,0.25
		c-0.15,0-0.32-0.02-0.51-0.05c-0.19-0.03-0.37-0.08-0.56-0.16c-0.18-0.07-0.36-0.17-0.52-0.29c-0.16-0.12-0.3-0.28-0.41-0.46h-0.02
		v3.19h-1.02v-8.57H36.35z M40.01,390.86c-0.08-0.28-0.19-0.52-0.35-0.74c-0.16-0.22-0.36-0.39-0.6-0.52
		c-0.24-0.13-0.53-0.19-0.86-0.19c-0.34,0-0.64,0.07-0.88,0.2c-0.24,0.14-0.44,0.31-0.59,0.53c-0.15,0.22-0.26,0.47-0.33,0.75
		c-0.07,0.28-0.1,0.56-0.1,0.85c0,0.3,0.04,0.6,0.11,0.88c0.07,0.29,0.19,0.54,0.34,0.75c0.16,0.22,0.36,0.39,0.61,0.52
		c0.25,0.13,0.55,0.2,0.9,0.2c0.35,0,0.65-0.07,0.88-0.2c0.24-0.14,0.43-0.32,0.57-0.54c0.14-0.22,0.25-0.48,0.31-0.77
		c0.06-0.29,0.1-0.58,0.1-0.89C40.13,391.42,40.09,391.14,40.01,390.86z"/>
	<path class="st4" d="M41.91,388.66h1.31l1.49,2.17l1.55-2.17h1.22l-2.14,2.86l2.4,3.35h-1.31l-1.73-2.57l-1.73,2.57h-1.24
		l2.33-3.26L41.91,388.66z"/>
</g>
<g>
	<path class="st4" d="M199.31,371.89v7.61h4.54v0.96h-5.68v-8.57H199.31z"/>
	<path class="st4" d="M209.44,380.59c-0.26,0-0.47-0.07-0.63-0.22c-0.16-0.15-0.23-0.39-0.23-0.73c-0.28,0.34-0.61,0.58-0.98,0.73
		c-0.37,0.15-0.77,0.22-1.21,0.22c-0.28,0-0.54-0.03-0.79-0.09c-0.25-0.06-0.47-0.16-0.65-0.3c-0.19-0.14-0.34-0.32-0.44-0.54
		c-0.11-0.22-0.16-0.49-0.16-0.8c0-0.35,0.06-0.64,0.18-0.86c0.12-0.22,0.28-0.41,0.47-0.55c0.2-0.14,0.42-0.25,0.67-0.32
		c0.25-0.07,0.51-0.13,0.77-0.18c0.28-0.06,0.55-0.1,0.8-0.13c0.25-0.03,0.47-0.07,0.67-0.12c0.19-0.05,0.34-0.13,0.46-0.23
		c0.11-0.1,0.17-0.25,0.17-0.44c0-0.22-0.04-0.4-0.13-0.54c-0.08-0.13-0.19-0.24-0.32-0.31c-0.13-0.07-0.28-0.12-0.44-0.14
		c-0.16-0.02-0.33-0.04-0.49-0.04c-0.43,0-0.79,0.08-1.08,0.25c-0.29,0.16-0.44,0.47-0.47,0.93h-1.02c0.02-0.38,0.1-0.71,0.24-0.97
		c0.14-0.26,0.34-0.48,0.58-0.64c0.24-0.16,0.52-0.28,0.83-0.35c0.31-0.07,0.64-0.11,0.98-0.11c0.28,0,0.56,0.02,0.83,0.06
		c0.28,0.04,0.53,0.12,0.75,0.25c0.22,0.12,0.4,0.3,0.54,0.52c0.14,0.22,0.2,0.52,0.2,0.88v3.19c0,0.24,0.01,0.42,0.04,0.53
		c0.03,0.11,0.12,0.17,0.28,0.17c0.09,0,0.19-0.02,0.31-0.06v0.79C210,380.54,209.75,380.59,209.44,380.59z M208.01,377.47
		c-0.21,0.04-0.43,0.08-0.65,0.11c-0.23,0.03-0.46,0.06-0.69,0.1c-0.23,0.04-0.44,0.09-0.62,0.17c-0.18,0.08-0.33,0.2-0.45,0.34
		c-0.12,0.15-0.17,0.35-0.17,0.61c0,0.17,0.03,0.31,0.1,0.43c0.07,0.12,0.16,0.21,0.26,0.28c0.11,0.07,0.24,0.12,0.38,0.16
		c0.15,0.03,0.3,0.05,0.45,0.05c0.34,0,0.62-0.05,0.86-0.14c0.24-0.09,0.44-0.21,0.59-0.35c0.15-0.14,0.26-0.29,0.34-0.46
		c0.07-0.16,0.11-0.32,0.11-0.46v-1.04C208.39,377.36,208.22,377.42,208.01,377.47z"/>
	<path class="st4" d="M212.04,374.26v1.31h0.02c0.25-0.5,0.55-0.88,0.91-1.12c0.36-0.24,0.82-0.35,1.37-0.34v1.08
		c-0.41,0-0.76,0.06-1.04,0.17c-0.29,0.11-0.52,0.28-0.7,0.49c-0.18,0.22-0.3,0.48-0.38,0.79c-0.08,0.31-0.12,0.66-0.12,1.06v2.76
		h-1.02v-6.21H212.04z"/>
	<path class="st4" d="M219.44,382.22c-0.46,0.5-1.19,0.76-2.18,0.76c-0.29,0-0.58-0.03-0.88-0.1c-0.3-0.06-0.57-0.17-0.82-0.31
		c-0.24-0.14-0.45-0.33-0.61-0.56c-0.16-0.23-0.25-0.52-0.26-0.85h1.02c0.01,0.18,0.07,0.34,0.17,0.47c0.11,0.13,0.24,0.23,0.4,0.31
		c0.16,0.08,0.33,0.14,0.51,0.17c0.18,0.04,0.36,0.05,0.53,0.05c0.34,0,0.62-0.06,0.85-0.17c0.23-0.12,0.42-0.28,0.58-0.48
		c0.15-0.2,0.26-0.45,0.33-0.74c0.07-0.29,0.1-0.6,0.1-0.95v-0.41h-0.02c-0.18,0.38-0.44,0.67-0.8,0.85
		c-0.36,0.18-0.73,0.27-1.13,0.27c-0.46,0-0.87-0.08-1.21-0.25c-0.34-0.17-0.63-0.39-0.87-0.68c-0.23-0.28-0.41-0.62-0.52-1
		c-0.12-0.38-0.17-0.78-0.17-1.21c0-0.37,0.05-0.75,0.14-1.13c0.1-0.39,0.26-0.74,0.48-1.06c0.22-0.32,0.52-0.58,0.89-0.78
		c0.37-0.2,0.82-0.31,1.36-0.31c0.39,0,0.75,0.09,1.08,0.26c0.33,0.17,0.58,0.43,0.77,0.77h0.01v-0.89h0.96v5.68
		C220.13,380.95,219.9,381.71,219.44,382.22z M218.13,379.42c0.24-0.14,0.43-0.32,0.57-0.55c0.14-0.23,0.25-0.49,0.32-0.77
		c0.07-0.29,0.1-0.58,0.1-0.86c0-0.27-0.03-0.54-0.1-0.8c-0.06-0.26-0.17-0.5-0.31-0.71c-0.14-0.21-0.32-0.38-0.54-0.51
		c-0.22-0.13-0.5-0.19-0.82-0.19c-0.33,0-0.61,0.06-0.84,0.19c-0.23,0.12-0.42,0.29-0.57,0.5c-0.15,0.21-0.26,0.45-0.32,0.72
		c-0.07,0.27-0.1,0.56-0.1,0.85c0,0.28,0.03,0.56,0.08,0.84c0.06,0.28,0.15,0.53,0.29,0.76c0.14,0.23,0.32,0.41,0.54,0.55
		c0.22,0.14,0.5,0.21,0.84,0.21C217.61,379.64,217.9,379.57,218.13,379.42z"/>
	<path class="st4" d="M226.06,380.07c-0.46,0.35-1.05,0.53-1.75,0.53c-0.5,0-0.93-0.08-1.29-0.24c-0.37-0.16-0.67-0.38-0.92-0.67
		c-0.25-0.29-0.43-0.63-0.56-1.03c-0.12-0.4-0.19-0.84-0.21-1.31c0-0.47,0.07-0.9,0.22-1.29c0.14-0.39,0.35-0.73,0.61-1.02
		c0.26-0.29,0.57-0.51,0.92-0.67c0.36-0.16,0.75-0.24,1.17-0.24c0.55,0,1.01,0.11,1.37,0.34c0.36,0.23,0.66,0.52,0.88,0.87
		c0.22,0.35,0.37,0.74,0.46,1.15c0.08,0.42,0.12,0.81,0.1,1.19h-4.64c-0.01,0.27,0.02,0.53,0.1,0.77c0.07,0.24,0.19,0.46,0.35,0.65
		c0.16,0.19,0.36,0.34,0.61,0.45c0.25,0.11,0.54,0.17,0.88,0.17c0.43,0,0.79-0.1,1.06-0.3c0.28-0.2,0.46-0.5,0.55-0.91h1.01
		C226.82,379.19,226.53,379.72,226.06,380.07z M225.81,376.08c-0.09-0.22-0.21-0.4-0.37-0.56c-0.16-0.16-0.34-0.28-0.55-0.37
		s-0.45-0.14-0.7-0.14c-0.26,0-0.5,0.05-0.71,0.14s-0.39,0.22-0.55,0.38c-0.15,0.16-0.27,0.35-0.36,0.56
		c-0.09,0.21-0.14,0.44-0.16,0.68h3.56C225.96,376.53,225.91,376.3,225.81,376.08z"/>
	<path class="st4" d="M229.04,374.26v1.31h0.02c0.25-0.5,0.55-0.88,0.91-1.12c0.36-0.24,0.82-0.35,1.37-0.34v1.08
		c-0.41,0-0.76,0.06-1.04,0.17c-0.29,0.11-0.52,0.28-0.7,0.49c-0.18,0.22-0.3,0.48-0.38,0.79c-0.08,0.31-0.12,0.66-0.12,1.06v2.76
		h-1.02v-6.21H229.04z"/>
	<path class="st4" d="M181.94,389.56v-0.9h1.04v-0.92c0-0.5,0.15-0.89,0.44-1.15c0.29-0.26,0.72-0.39,1.28-0.39
		c0.1,0,0.21,0.01,0.33,0.02c0.12,0.02,0.23,0.04,0.33,0.07v0.89c-0.09-0.03-0.18-0.05-0.29-0.07c-0.1-0.01-0.2-0.02-0.29-0.02
		c-0.25,0-0.44,0.05-0.58,0.14c-0.14,0.1-0.2,0.28-0.2,0.55v0.86h1.2v0.9H184v5.3h-1.02v-5.3H181.94z"/>
	<path class="st4" d="M185.97,390.49c0.13-0.4,0.32-0.74,0.58-1.03c0.26-0.29,0.57-0.52,0.95-0.69c0.38-0.17,0.81-0.25,1.3-0.25
		c0.5,0,0.93,0.08,1.3,0.25c0.37,0.17,0.69,0.4,0.94,0.69c0.26,0.29,0.45,0.63,0.58,1.03c0.13,0.4,0.19,0.82,0.19,1.28
		c0,0.46-0.06,0.88-0.19,1.27c-0.13,0.39-0.32,0.73-0.58,1.03c-0.26,0.29-0.57,0.52-0.94,0.68c-0.37,0.16-0.81,0.25-1.3,0.25
		c-0.49,0-0.92-0.08-1.3-0.25c-0.38-0.16-0.69-0.39-0.95-0.68c-0.26-0.29-0.45-0.63-0.58-1.03c-0.13-0.39-0.19-0.82-0.19-1.27
		C185.78,391.31,185.84,390.89,185.97,390.49z M187.01,392.77c0.1,0.29,0.24,0.54,0.41,0.73c0.18,0.2,0.38,0.35,0.62,0.45
		c0.24,0.1,0.49,0.16,0.75,0.16c0.26,0,0.51-0.05,0.75-0.16c0.24-0.1,0.44-0.25,0.62-0.45c0.18-0.2,0.31-0.44,0.41-0.73
		c0.1-0.29,0.15-0.62,0.15-1c0-0.38-0.05-0.71-0.15-1c-0.1-0.29-0.24-0.54-0.41-0.74c-0.18-0.2-0.38-0.35-0.62-0.46
		c-0.24-0.1-0.49-0.16-0.75-0.16c-0.26,0-0.51,0.05-0.75,0.16c-0.24,0.1-0.44,0.26-0.62,0.46c-0.18,0.2-0.31,0.45-0.41,0.74
		c-0.1,0.29-0.15,0.63-0.15,1C186.86,392.14,186.91,392.48,187.01,392.77z"/>
	<path class="st4" d="M193.93,388.66v1.31h0.02c0.25-0.5,0.55-0.88,0.91-1.12c0.36-0.24,0.82-0.35,1.37-0.34v1.08
		c-0.41,0-0.76,0.06-1.04,0.17c-0.29,0.11-0.52,0.28-0.7,0.49c-0.18,0.22-0.3,0.48-0.38,0.79c-0.08,0.31-0.12,0.66-0.12,1.06v2.76
		h-1.02v-6.2H193.93z"/>
	<path class="st4" d="M202.82,394.86v-6.1h-2.21v-0.82c0.29,0,0.57-0.02,0.84-0.07c0.27-0.04,0.52-0.13,0.74-0.25
		c0.22-0.12,0.41-0.28,0.56-0.49c0.15-0.21,0.26-0.47,0.31-0.79h0.78v8.51H202.82z"/>
	<path class="st4" d="M206.9,388.17c0.11-0.37,0.29-0.69,0.52-0.95c0.24-0.27,0.53-0.48,0.88-0.63c0.35-0.15,0.75-0.23,1.2-0.23
		c0.37,0,0.71,0.05,1.04,0.16c0.32,0.11,0.61,0.26,0.85,0.47c0.24,0.2,0.43,0.46,0.57,0.76c0.14,0.3,0.21,0.66,0.21,1.06
		c0,0.38-0.06,0.71-0.17,1c-0.12,0.29-0.27,0.55-0.46,0.77c-0.19,0.23-0.41,0.43-0.66,0.62c-0.25,0.18-0.5,0.36-0.77,0.53
		c-0.26,0.16-0.53,0.32-0.79,0.47c-0.26,0.16-0.51,0.32-0.72,0.5c-0.22,0.18-0.41,0.37-0.56,0.57c-0.16,0.21-0.26,0.44-0.31,0.7
		h4.37v0.9h-5.56c0.04-0.5,0.13-0.93,0.27-1.29c0.14-0.36,0.32-0.67,0.53-0.93c0.22-0.26,0.46-0.5,0.73-0.7
		c0.27-0.2,0.56-0.39,0.85-0.56c0.36-0.22,0.68-0.43,0.95-0.62c0.27-0.19,0.5-0.38,0.68-0.57c0.18-0.19,0.32-0.4,0.41-0.62
		c0.09-0.22,0.14-0.48,0.14-0.78c0-0.23-0.04-0.44-0.13-0.63c-0.09-0.19-0.21-0.35-0.35-0.49c-0.15-0.13-0.32-0.24-0.52-0.31
		c-0.2-0.07-0.41-0.11-0.64-0.11c-0.3,0-0.55,0.06-0.76,0.19c-0.21,0.12-0.39,0.29-0.52,0.49c-0.14,0.2-0.23,0.43-0.29,0.68
		c-0.06,0.25-0.09,0.51-0.08,0.76h-1.02C206.74,388.93,206.79,388.53,206.9,388.17z"/>
	<path class="st4" d="M213.44,389.72c0.02-0.34,0.06-0.66,0.12-0.98c0.06-0.32,0.16-0.62,0.28-0.91c0.12-0.29,0.28-0.54,0.49-0.76
		c0.21-0.22,0.47-0.39,0.79-0.52c0.32-0.13,0.69-0.19,1.13-0.19c0.44,0,0.82,0.06,1.13,0.19c0.32,0.13,0.58,0.3,0.79,0.52
		c0.21,0.22,0.37,0.47,0.49,0.76c0.12,0.29,0.21,0.59,0.28,0.91c0.06,0.32,0.1,0.65,0.12,0.98c0.02,0.34,0.02,0.66,0.02,0.97
		c0,0.31-0.01,0.64-0.02,0.97c-0.02,0.34-0.06,0.66-0.12,0.98c-0.06,0.32-0.16,0.62-0.28,0.91c-0.12,0.28-0.28,0.53-0.49,0.75
		c-0.21,0.21-0.47,0.39-0.78,0.51c-0.31,0.12-0.69,0.19-1.14,0.19c-0.44,0-0.82-0.06-1.13-0.19c-0.32-0.12-0.58-0.29-0.79-0.51
		c-0.21-0.22-0.37-0.47-0.49-0.75c-0.12-0.28-0.21-0.59-0.28-0.91c-0.06-0.32-0.1-0.65-0.12-0.98c-0.02-0.34-0.02-0.66-0.02-0.97
		C213.41,390.38,213.42,390.05,213.44,389.72z M214.52,391.75c0.02,0.4,0.08,0.77,0.19,1.12c0.11,0.35,0.28,0.64,0.52,0.88
		c0.24,0.24,0.58,0.36,1.01,0.36c0.43,0,0.77-0.12,1.01-0.36c0.24-0.24,0.41-0.53,0.52-0.88c0.11-0.35,0.17-0.72,0.19-1.12
		c0.02-0.4,0.03-0.75,0.03-1.07c0-0.21,0-0.44-0.01-0.69c0-0.25-0.02-0.5-0.06-0.76c-0.04-0.25-0.09-0.5-0.16-0.74
		c-0.07-0.24-0.17-0.45-0.3-0.63c-0.13-0.18-0.3-0.33-0.5-0.44c-0.2-0.11-0.44-0.17-0.73-0.17c-0.29,0-0.53,0.06-0.73,0.17
		c-0.2,0.11-0.37,0.26-0.5,0.44c-0.13,0.18-0.23,0.39-0.3,0.63c-0.07,0.24-0.12,0.49-0.16,0.74c-0.04,0.25-0.06,0.5-0.06,0.76
		c0,0.25-0.01,0.48-0.01,0.69C214.49,390.99,214.5,391.35,214.52,391.75z"/>
	<path class="st4" d="M221.41,388.66v0.84h0.02c0.17-0.34,0.43-0.59,0.79-0.75c0.36-0.16,0.76-0.23,1.19-0.23
		c0.48,0,0.9,0.09,1.25,0.26c0.36,0.18,0.65,0.41,0.89,0.71c0.24,0.3,0.41,0.65,0.53,1.04c0.12,0.39,0.18,0.81,0.18,1.25
		c0,0.44-0.06,0.86-0.17,1.25c-0.12,0.39-0.29,0.73-0.53,1.03c-0.24,0.29-0.53,0.52-0.89,0.69c-0.36,0.17-0.77,0.25-1.24,0.25
		c-0.15,0-0.32-0.02-0.51-0.05c-0.19-0.03-0.37-0.08-0.56-0.16c-0.18-0.07-0.36-0.17-0.52-0.29c-0.16-0.12-0.3-0.28-0.41-0.46h-0.02
		v3.19h-1.02v-8.57H221.41z M225.07,390.86c-0.08-0.28-0.19-0.52-0.35-0.74c-0.16-0.22-0.36-0.39-0.6-0.52
		c-0.24-0.13-0.53-0.19-0.86-0.19c-0.34,0-0.64,0.07-0.88,0.2c-0.24,0.14-0.44,0.31-0.59,0.53c-0.15,0.22-0.26,0.47-0.33,0.75
		c-0.07,0.28-0.1,0.56-0.1,0.85c0,0.3,0.04,0.6,0.11,0.88c0.07,0.28,0.19,0.53,0.34,0.75c0.16,0.22,0.36,0.39,0.61,0.52
		c0.25,0.13,0.55,0.2,0.9,0.2c0.35,0,0.65-0.07,0.88-0.2c0.24-0.14,0.43-0.32,0.57-0.54c0.14-0.22,0.25-0.48,0.31-0.77
		c0.06-0.29,0.1-0.58,0.1-0.89C225.19,391.42,225.15,391.14,225.07,390.86z"/>
	<path class="st4" d="M226.97,388.66h1.31l1.49,2.17l1.55-2.17h1.22l-2.14,2.86l2.4,3.35h-1.31l-1.73-2.57l-1.73,2.57h-1.24
		l2.33-3.26L226.97,388.66z"/>
	<path class="st4" d="M242.87,391.42v0.82h-2.62v2.63h-0.82v-2.63h-2.62v-0.82h2.62v-2.63h0.82v2.63H242.87z"/>
</g>
</svg>
